<svg width="16" height="16" viewBox="0 0 16 16" xmlns="http://www.w3.org/2000/svg"><title>badge1 16x16</title><g fill="none" fill-rule="evenodd"><path d="M.512 9.112c.854.716 1.446 2.186 1.33 3.29l.016-.157c-.118 1.108.684 1.92 1.79 1.823l-.157.013c1.11-.097 2.57.525 3.267 1.388l-.1-.123c.702.867 1.844.873 2.556.022l-.1.12c.715-.853 2.185-1.445 3.29-1.328l-.16-.018c1.11.118 1.922-.684 1.824-1.79l.014.158c-.097-1.11.525-2.57 1.388-3.267l-.123.1c.866-.702.873-1.844.022-2.556l.12.1c-.853-.715-1.445-2.184-1.328-3.29l-.018.16c.118-1.11-.684-1.92-1.79-1.824l.157-.014c-1.11.098-2.57-.524-3.267-1.387l.1.122C8.64-.21 7.498-.218 6.786.633l.1-.12c-.715.853-2.185 1.445-3.29 1.33l.16.015c-1.11-.118-1.92.685-1.824 1.79l-.014-.157C2.016 4.6 1.394 6.06.53 6.76l.123-.1C-.21 7.36-.218 8.5.633 9.213l-.12-.1z" fill="#0F88EB"/><path d="M6.223 10.985l-2.105-2.4s-.367-.564.193-1.09c.56-.526 1.063-.175 1.063-.175l1.562 1.706L10.69 5.08s.53-.28 1.038.157c.51.437.217 1.107.217 1.107s-2.772 3.088-4.3 4.628c-.58.53-1.422.013-1.422.013z" fill="#FFF"/></g></svg>