<svg height="58" viewBox="0 0 213 58" width="213" xmlns="http://www.w3.org/2000/svg"><g fill="none" fill-rule="evenodd" transform="translate(1 1)"><path d="m27.3427438 38.4895c-5.7607934.04025-10.4563306-3.745-10.7717025-10.8045-.3153719-6.587 5.4454215-11.004 10.9293885-11.12125 6.3126942-.1575 10.1006611 7.098 10.1006611 7.098l16.2942149-6.034s-6.705157-17.47025-24.8548099-17.47025c-16.9652562 0-28.68307441 11.83-28.68307441 27.88275 0 14.27475 11.04677681 28.511 28.28885951 27.881 18.9398347-.7105 25.4102149-17.47025 25.4102149-17.47025l-16.7304794-5.5615c.0402975-.07875-3.392 5.6-9.9815206 5.6" fill="#3dab53" fill-rule="nonzero"/><path d="m27.3427438 38.4895c-5.7607934.04025-10.4563306-3.745-10.7717025-10.8045-.3153719-6.587 5.4454215-11.004 10.9293885-11.12125 6.3126942-.1575 10.1006611 7.098 10.1006611 7.098l16.2942149-6.034s-6.705157-17.47025-24.8548099-17.47025c-16.9652562 0-28.68307441 11.83-28.68307441 27.88275 0 14.27475 11.04677681 28.511 28.28885951 27.881 18.9398347-.7105 25.4102149-17.47025 25.4102149-17.47025l-16.7304794-5.5615c.0402975-.07875-3.392 5.6-9.9815206 5.6" stroke="#006838" stroke-width="1.97225"/><path d="m66.2683967 16.19275c-.7919339 0-1.3981488-.1855-1.7240331-.51275s-.5133553-.88725-.5133553-1.72725c0-.7455.187471-1.26.5133553-1.5855.3258843-.32725.8847934-.46725 1.7240331-.46725h28.8565289c.8409918 0 1.4472066.14 1.7257851.46725.3258843.3255.4660496.84.4660496 1.5855 0 .7945-.1401653 1.4-.4660496 1.72725s-.8847933.51275-1.724033.51275h-4.3363637v10.26725h6.4335868c.8392397 0 1.3981488.14 1.7257852.42.3258842.28.4660495.74725.4660495 1.44725 0 .7455-.1401653 1.3055-.4660495 1.63275-.3276364.37275-.8865455.56-1.7257852.56h-6.4335868v13.39275c0 .84-.2330247 1.44725-.6990743 1.7745-.4660496.3255-1.0249587.4655-1.6311736.4655-.6535206 0-1.2124297-.1855-1.6784793-.51275s-.7008265-.88725-.7008265-1.72725v-13.39275h-10.3950082c-.1401653 1.86725-.3731901 3.54725-.7919339 4.99275-.3519407 1.3932102-.901206 2.7291029-1.6311736 3.96725-.7008264 1.16725-1.4927603 2.24-2.4704132 3.26725-.981157.98-2.0989752 1.96-3.3569587 2.89275-.7463801.56-1.4454545.79275-2.0989752.74725-.6517686-.04725-1.1651239-.3745-1.538314-1.02725-.4660496-.65275-.6062149-1.26-.4204959-1.82.1874711-.56.6079669-1.07275 1.2597355-1.58725.9291118-.6601295 1.816745-1.3766456 2.6578843-2.1455.7446281-.7 1.3981488-1.4945 1.9097521-2.38.5430621-.9337072.951244-1.9394079 1.2124298-2.98725.3276363-1.12.5133553-2.38.6535206-3.92h-6.2478678c-.8374876 0-1.3981487-.18725-1.724033-.56s-.4660496-.93275-.4660496-1.63275c0-.6545.1401653-1.12.4660496-1.44725.3258843-.28.8865454-.42 1.724033-.42h6.3880331v-10.26725h-4.9408264zm9.4646612 10.26725h10.3021487v-10.26725h-10.3021487zm33.0054211.28c-.511603.46725-1.024958.7-1.583867.65275-.560662-.0455-1.21243-.42-1.911505-1.12-.327636-.1855-.793686-.56-1.352595-1.0255-.606214-.46725-1.165124-.9345-1.771338-1.4-.606215-.5145-.9321-1.02725-1.072265-1.54-.140165-.5145.047306-1.0745.560661-1.7745.837488-1.07275 2.002612-1.12 3.402513-.09275.511603.42 1.072264.84 1.724033 1.35275.65352.5145 1.212429.98 1.678479 1.4.560661.56.932099 1.12 1.11957 1.72725.140166.46725-.094611 1.12-.793686 1.82zm.886546 6.76725c-.513356 2.0055-1.026711 3.87275-1.632926 5.6455-.581216 1.8161919-1.313808 3.5805336-2.190082 5.2745-.373191.7455-.83924 1.26-1.538315 1.4455-.620475.1970782-1.294845.1299738-1.864198-.1855-.606215-.3745-.981157-.84-1.121322-1.4-.138413-.56.094611-1.3545.607967-2.28725.74638-1.35275 1.350843-2.84725 1.864198-4.48s1.026711-3.36 1.49276-5.18c.185719-.88725.511604-1.49275.9321-1.82.420495-.32725.979405-.42 1.769586-.28.748133.14 1.307042.42 1.587372.93275.371438.5145.371438 1.30725.09286 2.3345zm.699074-15.7745c-.513355.46725-1.024959.7-1.58562.6545-.560661-.04725-1.165124-.42-1.909752-1.0745-.513355-.42-1.074016-.8855-1.680231-1.4-.486022-.4175349-.983205-.8219313-1.491008-1.21275-.606215-.51275-.979405-1.02725-1.072265-1.49275-.092859-.5145.047306-1.0745.560661-1.72725.418744-.56.930347-.88725 1.536562-.93275.606215-.04725 1.21243.14 1.865951.65275.466049.37275.884793.65275 1.210677.93275.327637.28.653521.5145.886546.74725s.466049.42.700826.60725c.231273.1855.418744.37275.651769.6055.558909.56.932099 1.12 1.117818 1.72725.187471.60725-.045554 1.21275-.699074 1.86725zm11.188694-.0455c-1.305289 0-2.190082.28-2.657884.8855-.513355.60725-.74638 1.54-.74638 2.8945v8.4c0 2.47275 1.11957 3.73275 3.404264 3.73275h3.449819v7.23275c0 .3745-.09286.60725-.233025.74725-.187471.09275-.653521.04725-1.492761-.18725-.884793-.23275-1.491008-.28-1.864198-.09275-.325884.18725-.606215.60725-.83924 1.21275-.185719.74725-.185719 1.3545.09286 1.82.280331.46725.840992.7945 1.771339.9345 1.259735.23275 2.284694.3255 3.07838.37275.791934 0 1.443702-.14 1.909752-.46725.467802-.3255.840992-.84 1.026711-1.54s.28033-1.63275.28033-2.75275v-7.28h3.448066c1.30529 0 2.191835-.28 2.750744-.84.513356-.56.793686-1.49275.793686-2.89275v-8.44725c0-1.30725-.233025-2.28725-.700826-2.89275-.46605-.60725-1.350843-.88725-2.610579-.88725h-4.052529c.09286-.18725.185719-.28.185719-.37275.047306-.04725.047306-.0945.09286-.14.420496-.9345.420496-1.68.047306-2.14725h6.666611c.791934 0 1.305289-.14 1.583868-.46725.280331-.3255.420496-.79275.420496-1.49275s-.140165-1.21275-.37319-1.54-.791934-.51275-1.631174-.51275h-19.81762c-1.305289 0-2.237388.3255-2.796297.93275-.606215.65275-.886546 1.68-.886546 3.08v9.8c0 2.28725 0 4.24725-.045553 5.92725-.047306 1.68-.140166 3.1255-.233025 4.3855-.140165 1.26-.327637 2.38-.560661 3.3145-.233249.9419555-.545037 1.8627542-.932099 2.75275-.185719.46725-.373191.84-.511604 1.21275-.140165.32725-.187471.6545-.187471.9345.005663.2802536.086106.5539201.233025.79275.140165.23275.37319.46725.700826.7.558909.37275 1.117819.46725 1.629422.42.513355-.09275.981157-.56 1.399901-1.44725.511603-1.07275.932099-2.2855 1.257983-3.5.325884-1.26.606215-2.66.793686-4.15275.185719-1.54.325884-3.17275.418744-4.99275.092859-1.82.092859-3.82725.092859-6.02v-9.1c0-.42.047306-.6545.187472-.7945.114989-.1077622.263299-.1731883.420495-.1855h8.949554l-.140165.28c-.047306.09275-.09286.1855-.140165.3255-.373191.74725-.744629 1.4-1.165124 2.0545h-2.470414zm.606215 19.6455c.325885-.79275.46605-1.4455.37319-1.91275-.094611-.46725-.466049-.84-1.11957-1.07275-.606215-.28-1.11957-.28-1.491008-.04725-.37319.23275-.74638.7-1.026711 1.35275-.233025.7-.466049 1.26-.699074 1.7745-.233025.51275-.420496.98-.651769 1.4-.234777.42-.467802.8855-.793686 1.35275-.28033.46725-.606215 1.02725-1.024959 1.63275-.466049.7-.65352 1.30725-.606214 1.82.047305.5145.28033.9345.651768 1.26.560661.42 1.072265.56 1.538314.42.467802-.1855.933851-.56 1.352595-1.12.700827-1.12 1.352595-2.2855 1.95881-3.4055.558909-1.16725 1.117818-2.3345 1.538314-3.4545zm9.601323-13.53275h-9.650381v-1.82c0-.28.047306-.46725.140166-.51275.130805-.0640043.27485-.0963762.420496-.0945h8.530809c.373191 0 .55891.18725.55891.60725zm0 5.41275c0 .46725-.185719.7-.560662.7h-8.530809c-.371439 0-.511604-.23275-.511604-.7v-1.8655h9.65038v1.8655zm4.847967 11.94725c-.325885-.60725-.606215-1.16725-.884794-1.63275-.28033-.46725-.513355-.9345-.793686-1.3545-.28033-.4655-.558909-.8855-.839239-1.35275-.325885-.46725-.651769-.98-1.072265-1.54-.46605-.60725-.932099-.93275-1.443702-.98-.515985-.0491954-1.022768.1606225-1.352595.56-.233025.23275-.420496.51275-.513356.79275-.092859.28-.092859.5145-.092859.7945.047305.28.092859.51275.185719.7455.094611.2345.233024.46725.420496.6545.325884.42.606214.84.839239 1.21275.280331.37275.513356.79275.791934 1.21275.233025.42.513355.88725.793686 1.3545.280331.4655.558909 1.0255.884793 1.5855.373191.74725.746381 1.2145 1.119571 1.3545.37319.1855.839239.14 1.445454-.14.651769-.32725 1.024959-.74725 1.072265-1.3545.045553-.51275-.140166-1.1655-.560661-1.91275zm18.090082-29.58725c0-.84.187471-1.4.513356-1.7255.37319-.32725.932099-.46725 1.769586-.46725.793686 0 1.354347.14 1.725785.46725.373191.3255.560662.8855.560662 1.7255v4.80725h9.417355c.932099 0 1.676727.04725 2.237388.14.558909.09275 1.024959.28 1.350843.60725.327637.3255.513356.7455.653521 1.3055.09286.56.185719 1.30725.185719 2.1945v11.5255c0 .84-.045554 1.54-.140165 2.0545-.09286.56-.325885.98-.604463 1.26-.327636.3255-.74638.51275-1.352595.65275-.560661.14-1.305289.18725-2.237389.18725h-9.417355v7.84c0 .65275-.187471 1.1655-.513355 1.5855-.325885.3745-.932099.60725-1.816893.60725-.981157 0-1.632925-.18725-1.911504-.51275-.280331-.32725-.420496-.88725-.420496-1.72725v-7.79275h-9.137025c-.932099 0-1.631173-.04725-2.237388-.18725-.560661-.14-1.026711-.32725-1.352595-.65275-.325884-.32725-.513355-.74725-.606215-1.30725-.103062-.6792463-.149943-1.3658169-.140165-2.05275v-11.5745c0-.84.047306-1.5855.140165-2.1.09286-.56.325884-.98.606215-1.26.325884-.3255.74638-.51275 1.352595-.6055.560661-.0945 1.305289-.18725 2.237388-.18725h9.137025zm-8.017454 9.3345c-.37319 0-.606215.0455-.700827.1855-.092859.14-.140165.46725-.140165.9345v8.4c0 .6055.047306.98.187471 1.12.092859.14.37319.1855.83924.1855h7.924595v-10.87275h-8.112066v.04725zm12.679702 0v10.87275h8.112066c.511604 0 .791934-.09275.932099-.23275.09286-.14.140166-.5145.140166-1.12v-8.4c0-.46725-.094612-.7945-.233025-.9345-.187471-.14-.560661-.1855-1.11957-.1855zm52.539207 19.88c0 1.4455-.280331 2.52-.884794 3.17275-.606215.65275-1.632925.98-3.171239.98h-25.779901c-1.538314 0-2.563273-.32725-3.076628-.98-.560661-.65275-.83924-1.72725-.83924-3.17275v-25.80725c0-1.44725.233025-2.47275.74638-3.12725.511604-.65275 1.538314-.93275 3.031075-.93275h25.87276c1.538314 0 2.563273.32725 3.169488.93275.560661.6545.886545 1.68.886545 3.12725v25.80725zm-28.623504-25.7145c-.325885 0-.560662.0945-.700827.2345s-.231273.4655-.231273.8855v23.1c0 1.02725.420496 1.54 1.350843 1.54h23.076463c.306889.0065437.592971-.1544388.74638-.42.185719-.28.280331-.65275.280331-1.12v-23.1455c0-.3745-.094612-.60725-.327636-.7945-.185719-.1855-.55891-.28-1.117819-.28zm3.031074 6.58c-.886545 0-1.49276-.14-1.773091-.42-.325884-.28-.46605-.79275-.46605-1.54 0-.79275.140166-1.35275.46605-1.5855.327636-.2345.886546-.3745 1.771339-.3745h17.389256c.932099 0 1.538314.14 1.818645.42.325884.28.466049.7945.466049 1.6345 0 .7455-.140165 1.26-.466049 1.54-.325885.28-.932099.42-1.818645.42h-7.271074v3.5455h5.920231c.837488 0 1.443703.14 1.769587.42.327636.28.513355.74725.513355 1.4945 0 .7455-.185719 1.21275-.511603 1.49275-.327636.28-.933851.42-1.771339.42h-.74638c.511603.56.932099 1.07275 1.257983 1.49275.325885.46725.746381.98 1.21243 1.6345.37319.4655.513356.8855.513356 1.35275s-.187472.84-.560662 1.16725h.233025c.886546 0 1.492761.14 1.773091.4655.280331.32725.46605.84.46605 1.58725s-.140166 1.21275-.46605 1.49275c-.327636.2345-.886545.3745-1.773091.3745h-18.507074c-.884794 0-1.491008-.14-1.771339-.3745-.325884-.23275-.46605-.7455-.46605-1.49275s.140166-1.26.46605-1.58725c.325884-.3255.886545-.4655 1.771339-.4655h6.433587v-5.64725h-4.847967c-.9321 0-1.538314-.14-1.818645-.42-.325884-.28-.46605-.74725-.46605-1.49275 0-.74725.140166-1.2145.46605-1.4945s.932099-.42 1.818645-.42h4.847967v-3.5455h-5.874678v-.0945zm12.492231 10.12725c-.511603-.60725-.744628-1.12-.699074-1.54.047306-.46725.187471-.84.513355-1.21275h-2.144529v5.6455h4.800662l-.231273-.23275c-.094612-.09275-.140165-.18725-.234777-.28-.233025-.28-.418744-.51275-.558909-.65275-.140165-.18725-.280331-.32725-.37319-.46725-.123122-.1841798-.263956-.3559113-.420496-.51275-.185719-.18725-.371438-.42-.651769-.74725z" fill="#111" fill-rule="nonzero"/></g></svg>